<svg xmlns="http://www.w3.org/2000/svg" width="1500" height="860" viewBox="0 0 1500 860" role="img" aria-labelledby="title desc">
<title id="title">Semantic Topic Distribution</title>
<desc id="desc">Percentages are drawn on each chart; the caption only maps colors to topics.</desc>
<style>
text{font-family:Inter,Segoe UI,Noto Sans SC,Arial,sans-serif;fill:#332f2b}
.title{font-size:34px;font-weight:830}
.panel-title{font-size:25px;font-weight:850}
.center-cap{font-size:17px;font-weight:750;fill:#332f2b}
.ratio{font-size:15px;font-weight:820;fill:#332f2b}
.legend-topic{font-size:17px;font-weight:720;fill:#332f2b}
</style>
<rect x="0" y="0" width="1500" height="860" fill="#ffffff"/>
<text class="title" x="750" y="76" text-anchor="middle">Semantic Topic Distribution</text>
<path d="M 415.000 186.000 A 184 184 0 0 1 504.347 209.149 L 463.558 282.581 A 100 100 0 0 0 415.000 270.000 Z" fill="#7897AA" stroke="#ffffff" stroke-width="4"/>
<path d="M 504.347 209.149 A 184 184 0 0 1 597.901 349.918 L 514.403 359.086 A 100 100 0 0 0 463.558 282.581 Z" fill="#C77F73" stroke="#ffffff" stroke-width="4"/>
<path d="M 597.901 349.918 A 184 184 0 0 1 556.213 487.961 L 491.746 434.109 A 100 100 0 0 0 514.403 359.086 Z" fill="#7FA989" stroke="#ffffff" stroke-width="4"/>
<path d="M 556.213 487.961 A 184 184 0 0 1 447.752 551.062 L 432.800 468.403 A 100 100 0 0 0 491.746 434.109 Z" fill="#D2A65F" stroke="#ffffff" stroke-width="4"/>
<path d="M 447.752 551.062 A 184 184 0 0 1 350.543 542.341 L 379.969 463.663 A 100 100 0 0 0 432.800 468.403 Z" fill="#9B8BC4" stroke="#ffffff" stroke-width="4"/>
<path d="M 350.543 542.341 A 184 184 0 0 1 276.160 490.746 L 339.544 435.623 A 100 100 0 0 0 379.969 463.663 Z" fill="#6FB4AC" stroke="#ffffff" stroke-width="4"/>
<path d="M 276.160 490.746 A 184 184 0 0 1 239.123 424.068 L 319.415 399.385 A 100 100 0 0 0 339.544 435.623 Z" fill="#C58B5F" stroke="#ffffff" stroke-width="4"/>
<path d="M 239.123 424.068 A 184 184 0 0 1 231.082 375.487 L 315.044 372.982 A 100 100 0 0 0 319.415 399.385 Z" fill="#C47FA0" stroke="#ffffff" stroke-width="4"/>
<path d="M 231.082 375.487 A 184 184 0 0 1 244.658 300.432 L 322.423 332.191 A 100 100 0 0 0 315.044 372.982 Z" fill="#7F8BC8" stroke="#ffffff" stroke-width="4"/>
<path d="M 244.658 300.432 A 184 184 0 0 1 272.621 253.448 L 337.620 306.657 A 100 100 0 0 0 322.423 332.191 Z" fill="#A4AE68" stroke="#ffffff" stroke-width="4"/>
<path d="M 272.621 253.448 A 184 184 0 0 1 301.302 225.332 L 353.208 291.376 A 100 100 0 0 0 337.620 306.657 Z" fill="#5FA4B3" stroke="#ffffff" stroke-width="4"/>
<path d="M 301.302 225.332 A 184 184 0 0 1 347.129 198.975 L 378.114 277.052 A 100 100 0 0 0 353.208 291.376 Z" fill="#B08B6C" stroke="#ffffff" stroke-width="4"/>
<path d="M 347.129 198.975 A 184 184 0 0 1 389.473 187.779 L 401.126 270.967 A 100 100 0 0 0 378.114 277.052 Z" fill="#75827C" stroke="#ffffff" stroke-width="4"/>
<path d="M 389.473 187.779 A 184 184 0 0 1 415.000 186.000 L 415.000 270.000 A 100 100 0 0 0 401.126 270.967 Z" fill="#A97DB9" stroke="#ffffff" stroke-width="4"/>
<circle cx="415" cy="370" r="92" fill="#ffffff" stroke="#dfd3c4"/>
<text class="panel-title" x="415" y="356" text-anchor="middle">ICML 2026</text>
<text class="center-cap" x="415" y="398" text-anchor="middle">632 papers</text>
<line x1="461.90" y1="188.98" x2="466.16" y2="172.52" stroke="#aa9a87" stroke-width="1.3" stroke-linecap="round"/>
<rect x="446.68" y="136.22" width="50" height="23" rx="9" fill="#ffffff" fill-opacity="0.94" stroke="#dfd3c4"/>
<text class="ratio" x="471.68" y="153.72" text-anchor="middle">8.1%</text>
<line x1="570.74" y1="266.50" x2="584.90" y2="257.09" stroke="#aa9a87" stroke-width="1.3" stroke-linecap="round"/>
<rect x="574.22" y="229.91" width="58" height="23" rx="9" fill="#ffffff" fill-opacity="0.94" stroke="#dfd3c4"/>
<text class="ratio" x="603.22" y="247.41" text-anchor="middle">15.2%</text>
<line x1="594.02" y1="424.06" x2="610.29" y2="428.98" stroke="#aa9a87" stroke-width="1.3" stroke-linecap="round"/>
<rect x="602.35" y="420.34" width="58" height="23" rx="9" fill="#ffffff" fill-opacity="0.94" stroke="#dfd3c4"/>
<text class="ratio" x="631.35" y="437.84" text-anchor="middle">12.8%</text>
<line x1="509.04" y1="531.64" x2="517.58" y2="546.33" stroke="#aa9a87" stroke-width="1.3" stroke-linecap="round"/>
<rect x="499.65" y="550.35" width="58" height="23" rx="9" fill="#ffffff" fill-opacity="0.94" stroke="#dfd3c4"/>
<text class="ratio" x="528.65" y="567.85" text-anchor="middle">11.1%</text>
<line x1="398.29" y1="556.25" x2="396.77" y2="573.18" stroke="#aa9a87" stroke-width="1.3" stroke-linecap="round"/>
<rect x="369.81" y="580.10" width="50" height="23" rx="9" fill="#ffffff" fill-opacity="0.94" stroke="#dfd3c4"/>
<text class="ratio" x="394.81" y="597.60" text-anchor="middle">8.5%</text>
<line x1="308.42" y1="523.65" x2="298.73" y2="537.62" stroke="#aa9a87" stroke-width="1.3" stroke-linecap="round"/>
<rect x="261.19" y="540.70" width="50" height="23" rx="9" fill="#ffffff" fill-opacity="0.94" stroke="#dfd3c4"/>
<text class="ratio" x="286.19" y="558.20" text-anchor="middle">7.9%</text>
<line x1="251.53" y1="460.80" x2="236.67" y2="469.06" stroke="#aa9a87" stroke-width="1.3" stroke-linecap="round"/>
<rect x="192.43" y="464.74" width="50" height="23" rx="9" fill="#ffffff" fill-opacity="0.94" stroke="#dfd3c4"/>
<text class="ratio" x="217.43" y="482.24" text-anchor="middle">6.6%</text>
<line x1="230.51" y1="400.54" x2="213.74" y2="403.31" stroke="#aa9a87" stroke-width="1.3" stroke-linecap="round"/>
<rect x="167.03" y="391.91" width="50" height="23" rx="9" fill="#ffffff" fill-opacity="0.94" stroke="#dfd3c4"/>
<text class="ratio" x="192.03" y="409.41" text-anchor="middle">4.3%</text>
<line x1="230.99" y1="336.71" x2="214.26" y2="333.69" stroke="#aa9a87" stroke-width="1.3" stroke-linecap="round"/>
<rect x="167.61" y="314.77" width="50" height="23" rx="9" fill="#ffffff" fill-opacity="0.94" stroke="#dfd3c4"/>
<text class="ratio" x="192.61" y="332.27" text-anchor="middle">6.6%</text>
<line x1="254.31" y1="274.36" x2="239.70" y2="265.67" stroke="#aa9a87" stroke-width="1.3" stroke-linecap="round"/>
<rect x="195.79" y="239.42" width="50" height="23" rx="9" fill="#ffffff" fill-opacity="0.94" stroke="#dfd3c4"/>
<text class="ratio" x="220.79" y="256.92" text-anchor="middle">4.7%</text>
<line x1="284.09" y1="236.46" x2="272.19" y2="224.32" stroke="#aa9a87" stroke-width="1.3" stroke-linecap="round"/>
<rect x="220.59" y="182.19" width="50" height="23" rx="9" fill="#ffffff" fill-opacity="0.94" stroke="#dfd3c4"/>
<text class="ratio" x="245.59" y="199.69" text-anchor="middle">3.5%</text>
<line x1="321.77" y1="207.90" x2="313.29" y2="193.16" stroke="#aa9a87" stroke-width="1.3" stroke-linecap="round"/>
<rect x="277.32" y="159.09" width="50" height="23" rx="9" fill="#ffffff" fill-opacity="0.94" stroke="#dfd3c4"/>
<text class="ratio" x="302.32" y="176.59" text-anchor="middle">4.6%</text>
<line x1="367.20" y1="189.21" x2="362.85" y2="172.78" stroke="#aa9a87" stroke-width="1.3" stroke-linecap="round"/>
<rect x="328.14" y="121.04" width="50" height="23" rx="9" fill="#ffffff" fill-opacity="0.94" stroke="#dfd3c4"/>
<text class="ratio" x="353.14" y="138.54" text-anchor="middle">3.8%</text>
<line x1="402.00" y1="183.45" x2="400.81" y2="166.49" stroke="#aa9a87" stroke-width="1.3" stroke-linecap="round"/>
<rect x="373.17" y="113.59" width="50" height="23" rx="9" fill="#ffffff" fill-opacity="0.94" stroke="#dfd3c4"/>
<text class="ratio" x="398.17" y="131.09" text-anchor="middle">2.2%</text>
<path d="M 1085.000 186.000 A 184 184 0 0 1 1266.803 341.653 L 1183.806 354.594 A 100 100 0 0 0 1085.000 270.000 Z" fill="#7897AA" stroke="#ffffff" stroke-width="4"/>
<path d="M 1266.803 341.653 A 184 184 0 0 1 1246.008 459.064 L 1172.505 418.404 A 100 100 0 0 0 1183.806 354.594 Z" fill="#C77F73" stroke="#ffffff" stroke-width="4"/>
<path d="M 1246.008 459.064 A 184 184 0 0 1 1128.845 548.700 L 1108.829 467.119 A 100 100 0 0 0 1172.505 418.404 Z" fill="#7FA989" stroke="#ffffff" stroke-width="4"/>
<path d="M 1128.845 548.700 A 184 184 0 0 1 1061.035 552.433 L 1071.976 469.148 A 100 100 0 0 0 1108.829 467.119 Z" fill="#D2A65F" stroke="#ffffff" stroke-width="4"/>
<path d="M 1061.035 552.433 A 184 184 0 0 1 979.318 520.623 L 1027.564 451.860 A 100 100 0 0 0 1071.976 469.148 Z" fill="#9B8BC4" stroke="#ffffff" stroke-width="4"/>
<path d="M 979.318 520.623 A 184 184 0 0 1 920.456 452.349 L 995.574 414.755 A 100 100 0 0 0 1027.564 451.860 Z" fill="#6FB4AC" stroke="#ffffff" stroke-width="4"/>
<path d="M 920.456 452.349 A 184 184 0 0 1 902.651 394.591 L 985.897 383.365 A 100 100 0 0 0 995.574 414.755 Z" fill="#C58B5F" stroke="#ffffff" stroke-width="4"/>
<path d="M 902.651 394.591 A 184 184 0 0 1 911.132 309.783 L 990.507 337.274 A 100 100 0 0 0 985.897 383.365 Z" fill="#C47FA0" stroke="#ffffff" stroke-width="4"/>
<path d="M 911.132 309.783 A 184 184 0 0 1 927.147 275.456 L 999.211 318.617 A 100 100 0 0 0 990.507 337.274 Z" fill="#7F8BC8" stroke="#ffffff" stroke-width="4"/>
<path d="M 927.147 275.456 A 184 184 0 0 1 960.601 234.424 L 1017.392 296.317 A 100 100 0 0 0 999.211 318.617 Z" fill="#A4AE68" stroke="#ffffff" stroke-width="4"/>
<path d="M 960.601 234.424 A 184 184 0 0 1 1008.930 202.461 L 1043.658 278.946 A 100 100 0 0 0 1017.392 296.317 Z" fill="#5FA4B3" stroke="#ffffff" stroke-width="4"/>
<path d="M 1008.930 202.461 A 184 184 0 0 1 1044.849 190.434 L 1063.179 272.410 A 100 100 0 0 0 1043.658 278.946 Z" fill="#B08B6C" stroke="#ffffff" stroke-width="4"/>
<path d="M 1044.849 190.434 A 184 184 0 0 1 1054.780 188.499 L 1068.576 271.358 A 100 100 0 0 0 1063.179 272.410 Z" fill="#75827C" stroke="#ffffff" stroke-width="4"/>
<path d="M 1054.780 188.499 A 184 184 0 0 1 1085.000 186.000 L 1085.000 270.000 A 100 100 0 0 0 1068.576 271.358 Z" fill="#A97DB9" stroke="#ffffff" stroke-width="4"/>
<circle cx="1085" cy="370" r="92" fill="#ffffff" stroke="#dfd3c4"/>
<text class="panel-title" x="1085" y="356" text-anchor="middle">ICLR 2026</text>
<text class="center-cap" x="1085" y="398" text-anchor="middle">457 papers</text>
<line x1="1206.62" y1="227.95" x2="1217.67" y2="215.04" stroke="#aa9a87" stroke-width="1.3" stroke-linecap="round"/>
<rect x="1202.98" y="183.32" width="58" height="23" rx="9" fill="#ffffff" fill-opacity="0.94" stroke="#dfd3c4"/>
<text class="ratio" x="1231.98" y="200.82" text-anchor="middle">22.5%</text>
<line x1="1269.13" y1="402.61" x2="1285.87" y2="405.58" stroke="#aa9a87" stroke-width="1.3" stroke-linecap="round"/>
<rect x="1278.54" y="394.41" width="58" height="23" rx="9" fill="#ffffff" fill-opacity="0.94" stroke="#dfd3c4"/>
<text class="ratio" x="1307.54" y="411.91" text-anchor="middle">10.5%</text>
<line x1="1198.63" y1="518.52" x2="1208.96" y2="532.02" stroke="#aa9a87" stroke-width="1.3" stroke-linecap="round"/>
<rect x="1193.32" y="534.49" width="58" height="23" rx="9" fill="#ffffff" fill-opacity="0.94" stroke="#dfd3c4"/>
<text class="ratio" x="1222.32" y="551.99" text-anchor="middle">13.1%</text>
<line x1="1095.28" y1="556.72" x2="1096.21" y2="573.69" stroke="#aa9a87" stroke-width="1.3" stroke-linecap="round"/>
<rect x="1072.42" y="580.66" width="50" height="23" rx="9" fill="#ffffff" fill-opacity="0.94" stroke="#dfd3c4"/>
<text class="ratio" x="1097.42" y="598.16" text-anchor="middle">5.9%</text>
<line x1="1017.17" y1="544.26" x2="1011.00" y2="560.10" stroke="#aa9a87" stroke-width="1.3" stroke-linecap="round"/>
<rect x="978.02" y="565.61" width="50" height="23" rx="9" fill="#ffffff" fill-opacity="0.94" stroke="#dfd3c4"/>
<text class="ratio" x="1003.02" y="583.11" text-anchor="middle">7.7%</text>
<line x1="943.37" y1="492.11" x2="930.49" y2="503.21" stroke="#aa9a87" stroke-width="1.3" stroke-linecap="round"/>
<rect x="888.83" y="502.57" width="50" height="23" rx="9" fill="#ffffff" fill-opacity="0.94" stroke="#dfd3c4"/>
<text class="ratio" x="913.83" y="520.07" text-anchor="middle">7.9%</text>
<line x1="906.30" y1="425.09" x2="890.05" y2="430.10" stroke="#aa9a87" stroke-width="1.3" stroke-linecap="round"/>
<rect x="844.03" y="421.58" width="50" height="23" rx="9" fill="#ffffff" fill-opacity="0.94" stroke="#dfd3c4"/>
<text class="ratio" x="869.03" y="439.08" text-anchor="middle">5.3%</text>
<line x1="898.93" y1="351.39" x2="882.01" y2="349.70" stroke="#aa9a87" stroke-width="1.3" stroke-linecap="round"/>
<rect x="835.12" y="332.51" width="50" height="23" rx="9" fill="#ffffff" fill-opacity="0.94" stroke="#dfd3c4"/>
<text class="ratio" x="860.12" y="350.01" text-anchor="middle">7.4%</text>
<line x1="915.54" y1="290.94" x2="900.13" y2="283.75" stroke="#aa9a87" stroke-width="1.3" stroke-linecap="round"/>
<rect x="840.69" y="252.68" width="50" height="23" rx="9" fill="#ffffff" fill-opacity="0.94" stroke="#dfd3c4"/>
<text class="ratio" x="865.69" y="270.18" text-anchor="middle">3.3%</text>
<line x1="940.07" y1="251.83" x2="926.89" y2="241.09" stroke="#aa9a87" stroke-width="1.3" stroke-linecap="round"/>
<rect x="884.84" y="212.19" width="50" height="23" rx="9" fill="#ffffff" fill-opacity="0.94" stroke="#dfd3c4"/>
<text class="ratio" x="909.84" y="229.69" text-anchor="middle">4.6%</text>
<line x1="981.84" y1="214.03" x2="972.47" y2="199.85" stroke="#aa9a87" stroke-width="1.3" stroke-linecap="round"/>
<rect x="935.33" y="166.50" width="50" height="23" rx="9" fill="#ffffff" fill-opacity="0.94" stroke="#dfd3c4"/>
<text class="ratio" x="960.33" y="184.00" text-anchor="middle">5.0%</text>
<line x1="1025.63" y1="192.68" x2="1020.23" y2="176.56" stroke="#aa9a87" stroke-width="1.3" stroke-linecap="round"/>
<rect x="983.16" y="125.52" width="50" height="23" rx="9" fill="#ffffff" fill-opacity="0.94" stroke="#dfd3c4"/>
<text class="ratio" x="1008.16" y="143.02" text-anchor="middle">3.3%</text>
<line x1="1049.23" y1="186.45" x2="1045.98" y2="169.77" stroke="#aa9a87" stroke-width="1.3" stroke-linecap="round"/>
<rect x="1013.71" y="117.47" width="50" height="23" rx="9" fill="#ffffff" fill-opacity="0.94" stroke="#dfd3c4"/>
<text class="ratio" x="1038.71" y="134.97" text-anchor="middle">0.9%</text>
<line x1="1069.59" y1="183.64" x2="1068.19" y2="166.69" stroke="#aa9a87" stroke-width="1.3" stroke-linecap="round"/>
<rect x="1040.06" y="113.82" width="50" height="23" rx="9" fill="#ffffff" fill-opacity="0.94" stroke="#dfd3c4"/>
<text class="ratio" x="1065.06" y="131.32" text-anchor="middle">2.6%</text>
<rect x="76" y="676" width="17" height="17" rx="4" fill="#7897AA"/>
<text class="legend-topic" x="106" y="692">Evaluation &amp; benchmarks</text>
<rect x="76" y="714" width="17" height="17" rx="4" fill="#C77F73"/>
<text class="legend-topic" x="106" y="730">Safety, security &amp; governance</text>
<rect x="76" y="752" width="17" height="17" rx="4" fill="#7FA989"/>
<text class="legend-topic" x="106" y="768">Multi-agent systems &amp; MARL</text>
<rect x="76" y="790" width="17" height="17" rx="4" fill="#D2A65F"/>
<text class="legend-topic" x="106" y="806">Domain, science &amp; medical agents</text>
<rect x="76" y="828" width="17" height="17" rx="4" fill="#9B8BC4"/>
<text class="legend-topic" x="106" y="844">Embodied &amp; multimodal interaction</text>
<rect x="548" y="676" width="17" height="17" rx="4" fill="#6FB4AC"/>
<text class="legend-topic" x="578" y="692">Reward, learning &amp; credit</text>
<rect x="548" y="714" width="17" height="17" rx="4" fill="#C58B5F"/>
<text class="legend-topic" x="578" y="730">Memory, context &amp; personalization</text>
<rect x="548" y="752" width="17" height="17" rx="4" fill="#C47FA0"/>
<text class="legend-topic" x="578" y="768">Tool use &amp; workflows</text>
<rect x="548" y="790" width="17" height="17" rx="4" fill="#7F8BC8"/>
<text class="legend-topic" x="578" y="806">Coding &amp; SWE agents</text>
<rect x="548" y="828" width="17" height="17" rx="4" fill="#A4AE68"/>
<text class="legend-topic" x="578" y="844">Planning, reasoning &amp; orchestration</text>
<rect x="1010" y="676" width="17" height="17" rx="4" fill="#5FA4B3"/>
<text class="legend-topic" x="1040" y="692">Computer-use, GUI &amp; web agents</text>
<rect x="1010" y="714" width="17" height="17" rx="4" fill="#B08B6C"/>
<text class="legend-topic" x="1040" y="730">Infrastructure, protocols &amp; runtime</text>
<rect x="1010" y="752" width="17" height="17" rx="4" fill="#75827C"/>
<text class="legend-topic" x="1040" y="768">Human-agent interaction</text>
<rect x="1010" y="790" width="17" height="17" rx="4" fill="#A97DB9"/>
<text class="legend-topic" x="1040" y="806">Theory, behavior &amp; simulation</text>
</svg>
